<svg version="1.1" id="Layer_1" xmlns="http://www.w3.org/2000/svg" xmlns:xlink="http://www.w3.org/1999/xlink" x="0px" y="0px"
     width="100%" viewBox="0 0 1024 1024" enable-background="new 0 0 1024 1024" xml:space="preserve">
<path fill="#000000" opacity="1.000000" stroke="none" 
    d="
M564.003479,602.642944 
    C563.257385,592.040283 564.155823,581.883362 563.198792,571.725159 
    C561.976685,558.753479 557.589966,546.384705 556.277832,533.489014 
    C554.512573,516.139587 547.717773,499.570770 548.611267,481.806305 
    C548.925598,475.557068 549.871460,469.536896 552.502686,463.898438 
    C556.626953,455.060394 559.201294,445.813843 560.119080,436.141785 
    C560.612488,430.942657 558.367554,426.067047 557.656921,420.991730 
    C555.580811,406.163788 552.668274,391.513275 548.634949,377.072327 
    C547.257629,372.140991 544.850708,368.946808 539.838135,367.284851 
    C530.624084,364.229919 522.197266,359.538147 514.137634,354.100586 
    C509.317566,350.848633 504.323273,347.698303 499.038147,345.323944 
    C486.932678,339.885529 476.781799,332.023895 468.194305,322.040924 
    C462.916168,315.905090 456.893433,312.706177 448.245667,313.115662 
    C432.949585,313.839935 417.592316,313.179169 402.264526,313.384491 
    C397.886475,313.443115 396.447845,312.029419 396.552277,307.639893 
    C396.817719,296.481354 396.878357,285.305878 396.553253,274.150848 
    C396.406952,269.131744 397.919220,267.615021 403.030792,267.631531 
    C455.854279,267.802185 508.678558,267.728058 561.502625,267.718628 
    C568.911438,267.717316 568.915405,267.708801 568.974915,260.332855 
    C569.175293,235.519745 569.485474,210.706528 569.470581,185.893524 
    C569.467773,181.218643 571.058899,179.779312 575.530334,179.862747 
    C586.691162,180.070969 597.861450,180.102890 609.021118,179.871643 
    C613.610962,179.776550 615.166626,181.451248 615.134094,185.978287 
    C614.955444,210.805832 614.988342,235.634903 614.942810,260.463440 
    C614.929504,267.705963 614.942078,267.739349 622.080750,267.738800 
    C678.737488,267.734436 735.394165,267.724213 792.050903,267.718781 
    C799.247192,267.718109 799.262451,267.726288 799.269348,274.909210 
    C799.279846,285.907257 799.139832,296.907471 799.329468,307.902191 
    C799.400513,312.015778 797.951965,313.421692 793.820679,313.392395 
    C772.825439,313.243500 751.828308,313.383118 730.832458,313.278351 
    C727.469666,313.261566 724.876465,314.132782 722.275024,316.375610 
    C710.009949,326.950104 696.783875,336.030029 682.449585,343.768616 
    C668.431702,351.336365 655.755005,361.389465 640.291321,366.276764 
    C637.792480,367.066498 637.449280,369.246521 636.862610,371.354584 
    C632.877197,385.676239 631.670898,400.472748 629.309753,415.072357 
    C628.380676,420.817108 627.490479,426.587219 626.143860,432.241272 
    C623.525208,443.237152 623.681030,453.823425 626.031311,465.139496 
    C633.040649,498.888336 631.539978,532.676147 621.956543,565.844971 
    C619.300598,575.037231 620.214478,583.859558 621.392456,592.900269 
    C623.568787,609.603149 622.053467,625.965149 618.230896,642.381653 
    C615.543335,653.923828 617.306458,665.929810 617.274109,677.732300 
    C617.270020,679.211426 618.056946,680.243713 619.555542,680.623413 
    C623.425903,681.604004 624.165771,684.661316 624.190613,687.971863 
    C624.263184,697.636169 624.279724,707.302185 624.171997,716.965881 
    C624.117737,721.834900 622.575195,726.166077 618.407166,729.129700 
    C615.981201,730.854736 615.227722,733.196045 615.241638,736.054688 
    C615.279724,743.886108 615.089966,751.719971 615.217102,759.549133 
    C615.276917,763.232361 613.819397,764.528442 610.179688,764.475769 
    C598.850525,764.311401 587.517151,764.306946 576.187012,764.414673 
    C572.654968,764.448242 570.937317,763.320190 571.049683,759.553650 
    C571.267944,752.230591 571.094788,744.893677 571.410767,737.576660 
    C571.566406,733.974182 570.827881,731.007446 568.023987,728.675720 
    C564.145996,725.450745 562.661072,721.273010 562.726318,716.294312 
    C562.842102,707.464111 562.748047,698.631226 562.772827,689.799561 
    C562.782532,686.338135 563.372375,683.100403 566.834595,681.282593 
    C568.809875,680.245361 568.889221,678.440308 568.894775,676.562317 
    C568.936523,662.398743 569.087097,648.234314 568.963074,634.072266 
    C568.931396,630.446289 568.395081,626.733887 567.466858,623.226196 
    C565.714844,616.605469 564.604492,609.914856 564.003479,602.642944 
M614.305603,329.503723 
    C614.518005,334.706879 613.794067,339.973694 614.898560,346.055145 
    C622.961243,340.725739 631.376221,340.015625 639.855896,339.500641 
    C640.963135,339.433380 642.122131,338.881104 643.103760,338.296051 
    C651.417786,333.340363 660.435364,329.858459 669.135986,325.711700 
    C674.948914,322.941223 680.111267,319.139832 685.394592,314.473877 
    C683.980530,313.924927 683.389465,313.495972 682.797180,313.494354 
    C661.165405,313.435455 639.533508,313.425079 617.901672,313.380951 
    C615.021484,313.375061 614.219238,314.937866 614.286499,317.527374 
    C614.381592,321.185852 614.307251,324.848724 614.305603,329.503723 
M549.677673,341.347595 
    C551.540771,341.870422 553.072083,343.560303 556.153015,342.738922 
    C556.417725,333.203339 560.442749,324.251587 563.251099,315.059601 
    C558.541077,312.608429 497.803284,312.658173 493.677856,315.238464 
    C497.879883,320.104309 502.466400,324.733795 508.313660,326.833679 
    C521.809753,331.680450 534.056458,340.180267 549.677673,341.347595 
z"/>
<path fill="#000000" opacity="1.000000" stroke="none" 
    d="
M471.877747,742.806824 
    C470.459625,748.217590 467.282532,749.681946 462.135773,749.450439 
    C452.493195,749.016724 442.815277,749.202271 433.156647,749.379272 
    C429.694641,749.442688 427.675476,748.337524 426.265289,745.062866 
    C413.428345,715.254700 400.467560,685.499817 387.534363,655.733093 
    C378.115967,634.055969 368.674744,612.388733 359.274872,590.703613 
    C358.372040,588.620789 356.977173,586.660156 357.164429,584.242065 
    C358.595673,582.829651 360.336945,583.131470 361.952454,583.124634 
    C373.613220,583.075500 385.277710,583.232544 396.933289,582.975525 
    C401.281494,582.879639 403.413422,584.558899 405.116089,588.489685 
    C418.547119,619.496460 432.187653,650.412537 445.788208,681.345764 
    C446.375305,682.681091 446.744720,684.221252 448.329102,685.050415 
    C450.819122,684.734619 450.957611,682.411926 451.726471,680.723816 
    C465.801880,649.819458 479.897369,618.923828 493.812012,587.947083 
    C495.418915,584.369812 497.477417,582.958740 501.349731,583.023315 
    C512.007935,583.201172 522.672852,583.165344 533.331970,583.003967 
    C537.532532,582.940369 539.264771,584.407166 539.256165,588.806458 
    C539.155457,640.447693 539.158997,692.089172 539.239624,743.730469 
    C539.245789,747.703979 538.100891,749.452759 533.844238,749.372986 
    C522.853516,749.166687 511.854462,749.195251 500.862579,749.370422 
    C496.947113,749.432861 495.608826,747.990723 495.649414,744.109741 
    C495.804382,729.285217 495.738190,714.458191 495.693573,699.632263 
    C495.688263,697.870544 496.201416,695.999512 494.337738,693.067749 
    C486.673004,710.044800 479.356506,726.250549 471.877747,742.806824 
z"/>
<path fill="#000000" opacity="1.000000" stroke="none" 
    d="
M362.203247,418.007782 
    C366.403534,427.470978 368.198547,437.043457 368.183899,446.987518 
    C368.158142,464.485443 368.283722,481.985107 368.066681,499.480591 
    C367.950348,508.856598 366.308990,518.045471 362.344055,526.644714 
    C354.500519,543.655884 340.285217,552.579895 322.522339,554.705139 
    C307.552338,556.496277 292.159454,556.971497 277.206268,554.168518 
    C255.826035,550.160767 241.628998,537.598450 236.361343,516.022156 
    C235.382904,512.014526 234.815140,507.809357 234.771515,503.687805 
    C234.602203,487.691559 234.835464,471.690948 234.656662,455.694916 
    C234.608322,451.369659 236.039001,449.767029 240.404922,449.854736 
    C250.899429,450.065674 261.404938,450.088135 271.898071,449.844025 
    C276.595032,449.734741 278.414154,451.258606 278.327759,456.130096 
    C278.079620,470.124237 278.175018,484.125702 278.238739,498.123779 
    C278.283508,507.954559 282.044525,511.733459 291.828583,511.830322 
    C298.492798,511.896301 305.163513,511.899872 311.823059,511.680878 
    C318.744629,511.453278 322.502686,508.079620 323.858582,501.354401 
    C324.023224,500.537750 324.350586,499.726532 324.360077,498.910004 
    C324.569214,480.925446 325.388000,462.918121 323.944366,444.969452 
    C323.229889,436.086456 318.724792,432.540497 309.658661,432.440125 
    C299.994324,432.333099 290.327240,432.373016 280.662598,432.472229 
    C278.151184,432.497986 276.142853,432.052094 274.674438,429.782257 
    C266.802124,417.613770 258.858582,405.491302 250.979568,393.327087 
    C250.566544,392.689392 250.518661,391.815186 250.334915,391.170807 
    C251.776520,389.390991 253.551041,389.851624 255.146194,389.849792 
    C274.810516,389.827301 294.477844,389.636566 314.138184,389.919495 
    C327.436493,390.110840 339.744904,393.765228 350.325043,402.292450 
    C355.515076,406.475464 359.042297,411.850800 362.203247,418.007782 
z"/>
<path fill="#000000" opacity="1.000000" stroke="none" 
    d="
M379.548920,390.072205 
    C391.820862,389.912567 403.654297,390.056000 415.471832,389.688538 
    C420.241302,389.540222 421.417145,391.314606 421.399567,395.755737 
    C421.266327,429.408356 421.313873,463.061737 421.333740,496.714874 
    C421.340302,507.871613 425.208496,511.768341 436.295654,511.786346 
    C452.289154,511.812286 468.282837,511.806732 484.276123,511.738647 
    C487.293823,511.725830 489.759857,512.284729 491.502991,515.106934 
    C499.116577,527.433655 506.836609,539.694580 514.510071,551.984375 
    C515.038635,552.830933 515.564392,553.705200 515.103516,554.776123 
    C514.854980,554.989441 514.609497,555.379761 514.362671,555.380554 
    C496.226044,555.439941 478.089386,555.489014 459.952698,555.491577 
    C449.802429,555.492981 439.636292,555.763306 429.504974,555.303101 
    C401.873657,554.047852 382.782043,537.727783 378.275299,512.198181 
    C377.554871,508.117493 376.942535,503.922241 377.064941,499.803253 
    C378.089508,465.326813 376.444366,430.852905 377.116364,396.380524 
    C377.159515,394.168427 376.406647,391.582916 379.548920,390.072205 
z"/>
<path fill="#000000" opacity="1.000000" stroke="none" 
    d="
M665.016602,685.000000 
    C665.012939,653.029419 664.990356,621.558899 665.019470,590.088318 
    C665.025818,583.251831 665.248169,583.085388 672.026184,583.067993 
    C682.349854,583.041443 692.676758,583.209595 702.995972,582.993042 
    C707.685608,582.894653 709.380554,584.484802 709.355835,589.340698 
    C709.171814,625.473022 709.222717,661.606567 709.212769,697.739685 
    C709.210754,704.975586 709.236267,704.967163 716.266479,704.982239 
    C724.591980,705.000122 732.917603,705.026855 741.243042,705.066406 
    C743.805664,705.078552 746.032715,705.459717 747.647095,708.002869 
    C755.408325,720.228943 763.334290,732.350342 771.176575,744.525146 
    C771.966309,745.751160 773.005066,746.969421 772.350159,748.654968 
    C770.849243,749.693481 769.136902,749.297180 767.514893,749.298279 
    C735.544556,749.320068 703.574158,749.321411 671.603821,749.305908 
    C665.204895,749.302795 664.968689,749.028015 664.972229,742.445312 
    C664.982483,723.463562 665.000977,704.481750 665.016602,685.000000 
z"/>
<path fill="#000000" opacity="1.000000" stroke="none" 
    d="
M742.988037,449.915955 
    C756.677307,449.907898 756.673889,449.907898 756.670959,436.837250 
    C756.667847,423.180542 756.811829,409.521606 756.593201,395.868408 
    C756.522156,391.434204 757.708862,389.628967 762.470947,389.756012 
    C773.288025,390.044617 784.121704,389.940735 794.943054,389.720276 
    C799.037720,389.636902 800.427673,390.991669 800.418213,395.173157 
    C800.301636,446.635315 800.286255,498.098022 800.431152,549.560059 
    C800.444336,554.242249 798.875122,555.579529 794.393066,555.469971 
    C784.073547,555.217651 773.743469,555.407349 763.417664,555.400085 
    C756.711670,555.395386 756.685364,555.381653 756.677612,548.853638 
    C756.658936,533.031860 756.541809,517.208435 756.745239,501.389282 
    C756.802063,496.971283 755.682190,494.614014 750.898193,495.389923 
    C745.790100,496.218353 742.720459,493.957306 740.025208,489.613922 
    C732.743591,477.879272 724.981018,466.443207 717.429504,454.875488 
    C716.636169,453.660156 715.574402,452.510864 715.853455,449.916687 
    C724.729675,449.916687 733.610352,449.916687 742.988037,449.915955 
z"/>
<path fill="#000000" opacity="1.000000" stroke="none" 
    d="
M664.928955,400.048706 
    C664.941101,388.735779 664.421753,389.774048 674.584900,389.794769 
    C684.412354,389.814819 694.242859,389.913605 704.065979,389.700897 
    C708.000854,389.615662 709.332825,391.069397 709.326904,394.930267 
    C709.247864,446.899872 709.244141,498.869629 709.310608,550.839233 
    C709.315308,554.514587 707.877747,555.963989 704.306458,555.897888 
    C692.486450,555.679016 680.664978,555.492188 668.843323,555.426392 
    C664.751099,555.403625 664.947937,552.675903 664.946289,549.951843 
    C664.935974,533.294922 664.937500,516.637939 664.935852,499.980988 
    C664.932617,466.833832 664.929810,433.686707 664.928955,400.048706 
z"/>
<path fill="#000000" opacity="1.000000" stroke="none" 
    d="
M162.933777,465.029175 
    C174.617371,441.054535 186.160995,417.432007 197.638596,393.777496 
    C198.660370,391.671661 199.822968,389.998627 202.355804,389.995789 
    C212.673950,389.984253 222.992188,390.005890 233.310226,390.052032 
    C233.756378,390.054016 234.200912,390.418915 234.623672,390.604858 
    C235.672318,392.693726 234.192810,394.130737 233.437881,395.714233 
    C221.550308,420.648865 209.702530,445.602783 197.711105,470.487427 
    C195.265396,475.562744 194.215546,480.689819 194.271454,486.342804 
    C194.478958,507.322113 194.187363,528.307190 194.492935,549.284058 
    C194.569122,554.513855 192.947845,555.809265 187.960602,555.533081 
    C179.991730,555.091797 171.978638,555.277771 163.989594,555.448914 
    C160.299881,555.527893 158.583801,554.550110 158.607727,550.443542 
    C158.750290,525.966187 158.718399,501.487518 158.649765,477.009521 
    C158.637299,472.562378 161.319748,469.219238 162.933777,465.029175 
z"/>
<path fill="#000000" opacity="1.000000" stroke="none" 
    d="
M493.998779,495.396667 
    C486.667114,495.392639 479.831543,495.255249 473.004486,495.437408 
    C469.396942,495.533691 467.869263,494.245087 467.877930,490.561859 
    C467.953430,458.568268 467.955505,426.574463 467.935272,394.580719 
    C467.933136,391.226166 469.340759,389.797272 472.751343,389.818390 
    C484.248444,389.889526 495.747406,389.873322 507.243774,389.734039 
    C510.885681,389.689911 512.244141,391.115265 512.236572,394.764587 
    C512.170898,426.591675 512.178223,458.419098 512.291992,490.246002 
    C512.306030,494.168427 510.856049,495.628387 506.993683,495.426605 
    C502.839417,495.209564 498.664398,495.389374 493.998779,495.396667 
z"/>
<path fill="#000000" opacity="1.000000" stroke="none" 
    d="
M357.944336,696.983459 
    C366.878571,695.124451 375.549408,696.304810 384.179535,695.989380 
    C388.172272,695.843384 392.175598,696.000366 396.174133,695.996216 
    C399.053192,695.993225 400.331268,697.295898 400.317535,700.277100 
    C400.248444,715.271912 400.253357,730.267395 400.329620,745.262207 
    C400.345337,748.351868 398.899689,749.320129 396.049835,749.306580 
    C384.387238,749.251038 372.724182,749.272400 361.061371,749.299072 
    C358.532745,749.304810 356.829865,748.504700 356.843933,745.638123 
    C356.920837,729.980835 356.989136,714.323608 357.090149,698.666443 
    C357.093170,698.202637 357.425598,697.740967 357.944336,696.983459 
z"/>
<path fill="#000000" opacity="1.000000" stroke="none" 
    d="
M166.496964,414.588623 
    C173.636230,424.234009 173.571945,433.247131 167.036102,443.119385 
    C162.430649,450.075836 159.477966,458.126556 155.026520,467.247681 
    C142.052902,440.959381 129.785355,416.101807 117.393188,390.991699 
    C120.824387,389.253204 123.687096,389.955566 126.418335,389.918549 
    C134.072708,389.814819 141.731873,389.985992 149.383743,389.811432 
    C152.823486,389.732971 154.941925,390.941528 156.414688,394.107239 
    C159.571259,400.892395 163.008118,407.547089 166.496964,414.588623 
z"/>
</svg>
